<svg width="30" height="30" viewBox="0 0 30 30" fill="none" xmlns="http://www.w3.org/2000/svg">
<path d="M12.5 10H25M5 20H17.5" stroke="#A6ADBE" stroke-width="1.25" stroke-linecap="round"/>
<path d="M5 10C5 12.0711 6.67893 13.75 8.75 13.75C10.8211 13.75 12.5 12.0711 12.5 10C12.5 7.92893 10.8211 6.25 8.75 6.25C6.67893 6.25 5 7.92893 5 10Z" fill="#A6ADBE" stroke="#A6ADBE" stroke-width="1.25" stroke-linecap="round"/>
<path d="M17.5 20C17.5 22.0711 19.1789 23.75 21.25 23.75C23.3211 23.75 25 22.0711 25 20C25 17.9289 23.3211 16.25 21.25 16.25C19.1789 16.25 17.5 17.9289 17.5 20Z" fill="#A6ADBE" stroke="#A6ADBE" stroke-width="1.25" stroke-linecap="round"/>
</svg>
